<svg width="306" height="112" viewBox="0 0 306 112" fill="none" xmlns="http://www.w3.org/2000/svg">
<g clip-path="url(#clip0)">
<path d="M38.86 66.793L34.4431 63.7624L50.773 39.9627L55.1899 42.9933L38.86 66.793ZM48.4298 73.3592L44.0129 70.3286L60.3428 46.529L64.7597 49.5595L48.4298 73.3592ZM57.9996 79.9255L53.5828 76.8949L69.9127 53.0952L74.3295 56.1258L57.9996 79.9255ZM82.7174 50.2129L76.8283 46.1722L82.2716 38.2389C83.2695 36.7845 82.7609 34.6853 81.1414 33.5741L69.3632 25.4926C67.7437 24.3814 65.6021 24.6622 64.6042 26.1166L59.1609 34.0499L53.2718 30.0091C50.0327 27.7867 45.7497 28.3483 43.7538 31.2572L23.795 60.3457C21.7991 63.2545 22.8162 67.4528 26.0552 69.6753C25.0573 71.1297 25.5659 73.2288 27.1854 74.34C28.8049 75.4513 30.9464 75.1704 31.9444 73.716L49.6117 85.8383C48.6138 87.2927 49.1224 89.3919 50.7419 90.5031C52.3614 91.6143 54.5029 91.3335 55.5009 89.8791C58.7399 92.1015 63.023 91.5399 65.0189 88.631L84.9776 59.5425C86.9735 56.6336 85.9564 52.4353 82.7174 50.2129ZM68.1138 30.4694L76.9475 36.5306L72.4114 43.1416L63.5777 37.0804L68.1138 30.4694ZM59.1297 84.5902L29.6841 64.3864L49.6429 35.2979L79.0885 55.5017L59.1297 84.5902Z" fill="#961010"/>
</g>
<path d="M91.2137 83.326C89.0377 83.326 87.4737 82.697 86.5217 81.439C85.5697 80.147 85.0937 78.243 85.0937 75.727C85.0937 73.177 86.1647 65.986 88.3067 54.154L85.6037 48.697C89.4457 46.215 92.9477 44.974 96.1097 44.974C98.2177 44.974 99.4757 45.994 99.8837 48.034C103.386 46.028 106.82 45.025 110.186 45.025C112.396 45.025 114.334 45.535 116 46.555C117.972 47.745 118.958 49.802 118.958 52.726C118.958 57.554 116.289 61.056 110.951 63.232C116.391 64.184 119.111 67.227 119.111 72.361C119.111 75.693 117.734 78.345 114.98 80.317C112.226 82.289 109.132 83.275 105.698 83.275C102.298 83.275 99.5607 82.561 97.4867 81.133C95.4807 82.595 93.3897 83.326 91.2137 83.326ZM107.33 71.239C107.33 69.641 106.854 68.468 105.902 67.72C104.984 66.972 103.743 66.598 102.179 66.598C100.615 66.598 98.8637 66.921 96.9257 67.567C96.3817 70.457 96.1097 72.922 96.1097 74.962C97.7757 75.744 99.5097 76.135 101.312 76.135C103.114 76.135 104.559 75.71 105.647 74.86C106.769 74.01 107.33 72.803 107.33 71.239ZM104.015 51.757C102.689 51.757 101.261 52.012 99.7307 52.522C99.5267 53.848 98.8977 57.248 97.8437 62.722C100.666 62.518 103.063 61.838 105.035 60.682C107.007 59.492 107.993 57.792 107.993 55.582C107.993 53.032 106.667 51.757 104.015 51.757ZM130.118 83.326C127.908 83.326 126.327 82.697 125.375 81.439C124.423 80.147 123.947 78.243 123.947 75.727C123.947 73.177 125.018 65.986 127.16 54.154L124.457 48.697C128.299 46.215 131.801 44.974 134.963 44.974C137.581 44.974 138.89 46.572 138.89 49.768C138.89 50.822 138.227 54.749 136.901 61.549C135.609 68.315 134.963 72.344 134.963 73.636C134.963 76.934 135.473 79.399 136.493 81.031C134.453 82.561 132.328 83.326 130.118 83.326ZM165.293 72.208L162.692 66.853C166.33 64.439 169.611 63.232 172.535 63.232C174.983 63.232 176.207 64.609 176.207 67.363C176.207 68.145 175.731 70.542 174.779 74.554C173.861 78.532 173.402 81.575 173.402 83.683C173.402 85.791 173.861 87.355 174.779 88.375C172.875 89.769 170.886 90.466 168.812 90.466C166.738 90.466 165.259 89.786 164.375 88.426C163.525 87.066 163.1 85.077 163.1 82.459C161.264 83.003 159.36 83.275 157.388 83.275C152.764 83.275 149.024 81.847 146.168 78.991C143.346 76.135 141.935 71.919 141.935 66.343C141.935 63.963 142.445 61.549 143.465 59.101C144.485 56.619 145.93 54.324 147.8 52.216C149.67 50.108 152.101 48.391 155.093 47.065C158.119 45.705 161.23 45.025 164.426 45.025C167.656 45.025 170.172 45.62 171.974 46.81C173.81 48 174.728 49.649 174.728 51.757C174.728 53.865 174.031 55.514 172.637 56.704C171.277 57.86 169.713 58.438 167.945 58.438C166.177 58.438 164.579 58.064 163.151 57.316C161.757 56.534 160.635 55.429 159.785 54.001C157.949 54.885 156.368 56.619 155.042 59.203C153.716 61.787 153.053 64.49 153.053 67.312C153.053 70.134 153.597 72.259 154.685 73.687C155.807 75.081 157.201 75.778 158.867 75.778C161.281 75.778 163.423 74.588 165.293 72.208ZM201.68 83.326C199.504 83.326 197.94 82.697 196.988 81.439C196.036 80.147 195.56 78.243 195.56 75.727C195.56 73.177 196.631 65.986 198.773 54.154L196.07 48.697C199.912 46.215 203.414 44.974 206.576 44.974C208.684 44.974 209.942 45.994 210.35 48.034C213.852 46.028 217.286 45.025 220.652 45.025C222.862 45.025 224.8 45.535 226.466 46.555C228.438 47.745 229.424 49.802 229.424 52.726C229.424 57.554 226.755 61.056 221.417 63.232C226.857 64.184 229.577 67.227 229.577 72.361C229.577 75.693 228.2 78.345 225.446 80.317C222.692 82.289 219.598 83.275 216.164 83.275C212.764 83.275 210.027 82.561 207.953 81.133C205.947 82.595 203.856 83.326 201.68 83.326ZM217.796 71.239C217.796 69.641 217.32 68.468 216.368 67.72C215.45 66.972 214.209 66.598 212.645 66.598C211.081 66.598 209.33 66.921 207.392 67.567C206.848 70.457 206.576 72.922 206.576 74.962C208.242 75.744 209.976 76.135 211.778 76.135C213.58 76.135 215.025 75.71 216.113 74.86C217.235 74.01 217.796 72.803 217.796 71.239ZM214.481 51.757C213.155 51.757 211.727 52.012 210.197 52.522C209.993 53.848 209.364 57.248 208.31 62.722C211.132 62.518 213.529 61.838 215.501 60.682C217.473 59.492 218.459 57.792 218.459 55.582C218.459 53.032 217.133 51.757 214.481 51.757ZM263.484 52.522L263.076 64.66C263.076 68.842 263.416 72.361 264.096 75.217C264.81 78.073 266.119 80.045 268.023 81.133C265.677 82.595 263.297 83.326 260.883 83.326C256.633 83.326 254.015 79.892 253.029 73.024H242.625C241.979 75.234 241.656 76.934 241.656 78.124C241.656 79.28 241.792 80.215 242.064 80.929C239.548 82.527 237.304 83.326 235.332 83.326C232.306 83.326 230.793 81.49 230.793 77.818C230.793 75.982 231.354 73.67 232.476 70.882C233.632 68.094 235.145 64.898 237.015 61.294C238.919 57.69 240.126 55.31 240.636 54.154C240.262 52.318 239.837 50.516 239.361 48.748C241.129 47.524 242.829 46.606 244.461 45.994C246.127 45.348 247.912 45.025 249.816 45.025C251.754 45.025 253.097 45.45 253.845 46.3C255.783 45.45 257.381 45.025 258.639 45.025C259.897 45.025 260.832 45.229 261.444 45.637C262.056 46.045 262.498 46.64 262.77 47.422C263.246 48.782 263.484 50.482 263.484 52.522ZM253.233 53.695H251.601C248.541 59.611 246.263 64.269 244.767 67.669H252.672C252.672 63.963 252.859 59.305 253.233 53.695ZM293.141 72.208L290.54 66.853C294.178 64.439 297.459 63.232 300.383 63.232C302.831 63.232 304.055 64.609 304.055 67.363C304.055 68.145 303.579 70.542 302.627 74.554C301.709 78.532 301.25 81.575 301.25 83.683C301.25 85.791 301.709 87.355 302.627 88.375C300.723 89.769 298.734 90.466 296.66 90.466C294.586 90.466 293.107 89.786 292.223 88.426C291.373 87.066 290.948 85.077 290.948 82.459C289.112 83.003 287.208 83.275 285.236 83.275C280.612 83.275 276.872 81.847 274.016 78.991C271.194 76.135 269.783 71.919 269.783 66.343C269.783 63.963 270.293 61.549 271.313 59.101C272.333 56.619 273.778 54.324 275.648 52.216C277.518 50.108 279.949 48.391 282.941 47.065C285.967 45.705 289.078 45.025 292.274 45.025C295.504 45.025 298.02 45.62 299.822 46.81C301.658 48 302.576 49.649 302.576 51.757C302.576 53.865 301.879 55.514 300.485 56.704C299.125 57.86 297.561 58.438 295.793 58.438C294.025 58.438 292.427 58.064 290.999 57.316C289.605 56.534 288.483 55.429 287.633 54.001C285.797 54.885 284.216 56.619 282.89 59.203C281.564 61.787 280.901 64.49 280.901 67.312C280.901 70.134 281.445 72.259 282.533 73.687C283.655 75.081 285.049 75.778 286.715 75.778C289.129 75.778 291.271 74.588 293.141 72.208Z" fill="#961010"/>
<defs>
<clipPath id="clip0">
<rect width="85.7051" height="76.9688" fill="white" transform="translate(43.5464) rotate(34.4556)"/>
</clipPath>
</defs>
</svg>
